<svg width="100" height="100" viewBox="0 0 100 100" fill="none" xmlns="http://www.w3.org/2000/svg">
<rect width="100" height="100" rx="17" fill="#C2FF66"/>
<g clip-path="url(#clip0_2_238)">
<path d="M80.4688 65.625C81.712 65.625 82.9042 65.1311 83.7833 64.2521C84.6624 63.373 85.1562 62.1807 85.1562 60.9375V53.9031C85.1553 52.4041 84.5596 50.9666 83.5 49.9063L75.7812 42.1875H24.2188L16.5 49.9063C15.4404 50.9666 14.8447 52.4041 14.8438 53.9031V60.9375C14.8438 62.1807 15.3376 63.373 16.2167 64.2521C16.652 64.6873 17.1687 65.0326 17.7374 65.2682C18.3061 65.5038 18.9157 65.625 19.5312 65.625H80.4688Z" stroke="#2A195C" stroke-width="4.6875" stroke-linecap="round" stroke-linejoin="round"/>
<path d="M15.35 51.5625H26.9656C28.2079 51.5628 29.3994 52.0562 30.2781 52.9344L33.5937 56.25" stroke="#2A195C" stroke-width="4.6875" stroke-linecap="round" stroke-linejoin="round"/>
<path d="M84.65 51.5625H73.0344C71.792 51.5628 70.6006 52.0562 69.7219 52.9344L66.4062 56.25" stroke="#2A195C" stroke-width="4.6875" stroke-linecap="round" stroke-linejoin="round"/>
<path d="M24.2188 42.1875L29.5312 28C30.0338 26.6584 30.9344 25.5025 32.1123 24.6871C33.2903 23.8716 34.6892 23.4356 36.1219 23.4375H63.8781C65.3092 23.4375 66.7061 23.8744 67.8821 24.6897C69.0582 25.505 69.9573 26.6599 70.4594 28L75.7719 42.1875H24.2188Z" stroke="#2A195C" stroke-width="4.6875" stroke-linecap="round" stroke-linejoin="round"/>
<path d="M24.2188 42.1875L19.5312 37.5H14.8438" stroke="#2A195C" stroke-width="4.6875" stroke-linecap="round" stroke-linejoin="round"/>
<path d="M75.7812 42.1875L80.4688 37.5H85.1562" stroke="#2A195C" stroke-width="4.6875" stroke-linecap="round" stroke-linejoin="round"/>
<path d="M19.5312 65.625V70.3125C19.5312 71.5557 20.0251 72.748 20.9042 73.6271C21.7833 74.5061 22.9755 75 24.2188 75C25.462 75 26.6542 74.5061 27.5333 73.6271C28.4124 72.748 28.9062 71.5557 28.9062 70.3125V65.625H19.5312Z" stroke="#2A195C" stroke-width="4.6875" stroke-linecap="round" stroke-linejoin="round"/>
<path d="M80.4688 65.625V70.3125C80.4688 71.5557 79.9749 72.748 79.0958 73.6271C78.2167 74.5061 77.0245 75 75.7812 75C74.538 75 73.3458 74.5061 72.4667 73.6271C71.5876 72.748 71.0938 71.5557 71.0938 70.3125V65.625H80.4688Z" stroke="#2A195C" stroke-width="4.6875" stroke-linecap="round" stroke-linejoin="round"/>
<path d="M37.3892 87.1343C36.8162 87.1343 36.2523 87.0269 35.6973 86.812C35.1423 86.5936 34.6785 86.3035 34.3062 85.9419L34.9883 84.9429C35.2926 85.2472 35.6579 85.4925 36.084 85.6787C36.5137 85.8613 36.9487 85.9526 37.3892 85.9526C37.8296 85.9526 38.2002 85.8577 38.501 85.668C38.8018 85.4782 38.9521 85.2329 38.9521 84.9321C38.9521 84.814 38.9271 84.7048 38.877 84.6045C38.8268 84.5007 38.7516 84.4111 38.6514 84.3359C38.5511 84.2607 38.4508 84.1963 38.3506 84.1426C38.2503 84.0853 38.1196 84.0334 37.9585 83.9868C37.8009 83.9367 37.6702 83.8991 37.5664 83.874C37.4661 83.8454 37.3337 83.8132 37.1689 83.7773C36.8037 83.6914 36.4725 83.5876 36.1753 83.4658C35.8781 83.3405 35.6042 83.1865 35.3535 83.0039C35.1029 82.8213 34.9077 82.5993 34.7681 82.3379C34.6284 82.0729 34.5586 81.7793 34.5586 81.457C34.5586 80.8053 34.82 80.279 35.3428 79.8779C35.8656 79.4769 36.5441 79.2764 37.3784 79.2764C37.9119 79.2764 38.4025 79.3623 38.8501 79.5342C39.2977 79.7061 39.6647 79.9352 39.9512 80.2217L39.3335 81.2153C39.1187 80.9933 38.8304 80.8107 38.4688 80.6675C38.1107 80.5243 37.7401 80.4526 37.3569 80.4526C36.9344 80.4526 36.5871 80.5422 36.3149 80.7212C36.0464 80.9002 35.9121 81.1312 35.9121 81.4141C35.9121 81.9333 36.4546 82.3021 37.5396 82.5205C37.6756 82.5492 37.8027 82.5796 37.9209 82.6118C38.0391 82.644 38.1966 82.6942 38.3936 82.7622C38.5905 82.8302 38.7677 82.9036 38.9253 82.9824C39.0828 83.0612 39.2493 83.165 39.4248 83.2939C39.6038 83.4193 39.7524 83.5553 39.8706 83.7021C39.9924 83.8454 40.0926 84.019 40.1714 84.2231C40.2502 84.4272 40.2896 84.6457 40.2896 84.8784C40.2896 85.5409 40.0138 86.0833 39.4624 86.5059C38.911 86.9248 38.2199 87.1343 37.3892 87.1343ZM45.7412 81.3926H46.9766V87H45.7412V86.1943C45.2471 86.821 44.5918 87.1343 43.7754 87.1343C43.2562 87.1343 42.7853 87.0072 42.3628 86.7529C41.9403 86.4951 41.609 86.1424 41.3691 85.6948C41.1328 85.2472 41.0146 84.7477 41.0146 84.1963C41.0146 83.6449 41.1328 83.1453 41.3691 82.6978C41.609 82.2502 41.9403 81.8993 42.3628 81.645C42.7853 81.3872 43.2562 81.2583 43.7754 81.2583C44.5954 81.2583 45.2507 81.5698 45.7412 82.1929V81.3926ZM44.0171 85.9419C44.5112 85.9419 44.9212 85.7754 45.2471 85.4424C45.5765 85.1058 45.7412 84.6904 45.7412 84.1963C45.7412 83.6986 45.5765 83.2832 45.2471 82.9502C44.9212 82.6136 44.5112 82.4453 44.0171 82.4453C43.5194 82.4453 43.104 82.6136 42.771 82.9502C42.4416 83.2832 42.2769 83.6986 42.2769 84.1963C42.2769 84.6904 42.4416 85.1058 42.771 85.4424C43.104 85.7754 43.5194 85.9419 44.0171 85.9419ZM52.0522 87L50.269 84.9321L49.6782 85.5713V87H48.4429V79.0776H49.6782V83.9224L51.9985 81.3926H53.6045L51.1392 84.0083L53.6797 87H52.0522ZM58.4062 81.3926H59.6416V87H58.4062V86.1943C57.9121 86.821 57.2568 87.1343 56.4404 87.1343C55.9212 87.1343 55.4504 87.0072 55.0278 86.7529C54.6053 86.4951 54.2741 86.1424 54.0342 85.6948C53.7979 85.2472 53.6797 84.7477 53.6797 84.1963C53.6797 83.6449 53.7979 83.1453 54.0342 82.6978C54.2741 82.2502 54.6053 81.8993 55.0278 81.645C55.4504 81.3872 55.9212 81.2583 56.4404 81.2583C57.2604 81.2583 57.9157 81.5698 58.4062 82.1929V81.3926ZM56.6821 85.9419C57.1763 85.9419 57.5863 85.7754 57.9121 85.4424C58.2415 85.1058 58.4062 84.6904 58.4062 84.1963C58.4062 83.6986 58.2415 83.2832 57.9121 82.9502C57.5863 82.6136 57.1763 82.4453 56.6821 82.4453C56.1844 82.4453 55.769 82.6136 55.436 82.9502C55.1066 83.2832 54.9419 83.6986 54.9419 84.1963C54.9419 84.6904 55.1066 85.1058 55.436 85.4424C55.769 85.7754 56.1844 85.9419 56.6821 85.9419ZM65.1577 81.3926H66.5327L63.6592 88.0688C63.5088 88.4305 63.2886 88.7134 62.9985 88.9175C62.7121 89.1216 62.397 89.2236 62.0532 89.2236C61.8169 89.2236 61.5698 89.1717 61.312 89.0679C61.0578 88.9676 60.8394 88.8351 60.6567 88.6704L61.1509 87.7144C61.355 87.9292 61.5895 88.0366 61.8545 88.0366C62.1517 88.0366 62.3755 87.8773 62.5259 87.5586L62.8267 86.9355L60.4795 81.3926H61.8921L63.5195 85.48L65.1577 81.3926Z" fill="#2A195C"/>
</g>
<defs>
<clipPath id="clip0_2_238">
<rect width="75" height="75" fill="white" transform="translate(12.5 12.5)"/>
</clipPath>
</defs>
</svg>
